<svg id="_レイヤー_2" data-name="レイヤー 2" xmlns="http://www.w3.org/2000/svg" viewBox="0 0 1042.94 211.14"><defs><style>.cls-1 {
                                fill: #fff;
                              }</style></defs><g id="SEES_text"><g><path class="cls-1" d="m1.68,198.79l-1.68-42.96h1.68c11.23,34.54,31.45,51.38,56.16,51.38,22.74,0,44.08-15.44,44.08-42.4s-20.22-37.06-44.36-49.14l-14.04-7.02C23.58,98.83,4.21,85.92,4.21,55.88,4.21,23.87,27.8,0,61.21,0c15.44,0,36.22,5.05,49.7,12.07v33.41h-1.68C98.27,16.29,80.86,3.93,60.09,3.93c-23.59,0-39.31,16-39.31,39.59s18.53,33.69,35.1,42.12l14.04,7.02c24.71,12.35,48.57,25.55,48.57,59.24s-25.83,59.24-64.02,59.24c-16.29,0-39.87-5.05-52.79-12.35Z"></path><path class="cls-1" d="m296.64,45.49h-1.68c-14.32-32.01-23.3-37.62-51.66-37.62h-9.83v164.82c0,20.78,1.12,33.41,20.22,33.41v1.68h-65.14v-1.68c19.09,0,20.22-12.63,20.22-33.41V7.86h-10.11c-28.36,0-37.06,5.62-51.66,37.62h-1.69l3.93-42.12h143.76l3.65,42.12Z"></path><path class="cls-1" d="m478.98,206.09v1.68c-3.65.56-15.44,1.12-23.02,1.12-18.53,0-23.59-10.11-58.4-84.51-5.33-10.67-11.23-12.63-20.22-12.63h-14.6v60.93c0,20.78.84,33.41,19.94,33.41v1.68h-64.86v-1.68c19.09,0,20.22-12.63,20.22-33.41V38.47c0-20.78-1.12-33.41-20.22-33.41v-1.68h69.63c43.24,0,68.23,21.34,68.23,53.91,0,27.8-21.34,44.92-45.77,51.66v.56c8.14,5.05,14.88,16.85,21.06,28.92,27.24,52.5,33.13,62.61,48.01,67.67Zm-116.24-98.83h21.06c30.6,0,45.77-17.69,45.77-48.29s-14.04-51.1-45.49-51.1h-10.67c-6.74,0-10.67,3.37-10.67,10.11v89.29Z"></path><path class="cls-1" d="m653.93,160.6l-6.46,47.17h-141.51v-1.68c19.09,0,20.22-12.63,20.22-33.41V38.47c0-20.78-1.12-33.41-20.22-33.41v-1.68h137.3l3.65,42.12h-1.68c-14.32-32.01-23.59-37.62-54.19-37.62h-40.15v91.25h31.45c25.27,0,30.89-6.74,35.66-27.52h1.68v61.49h-1.68c-4.77-19.94-10.39-29.48-35.66-29.48h-31.45v86.48c0,8.42,2.53,13.2,11.23,13.2h33.13c29.76,0,40.43-5.05,57-42.68h1.68Z"></path><path class="cls-1" d="m680.38,106.13c0-62.89,39.59-106.13,94.06-106.13,30.89,0,51.1,7.86,64.58,15.16v32.85h-1.69c-14.88-30.61-32.29-44.08-63.17-44.08-39.31,0-66.26,43.24-66.26,101.92s25.55,101.36,66.82,101.36c24.15,0,43.24-10.11,43.24-26.39v-30.88c0-20.78-1.68-31.17-17.97-32.29v-1.68h51.66v1.68c-8.42,1.12-8.98,11.51-8.98,32.29v40.99c-15.72,10.67-40.15,20.22-68.79,20.22-56.72,0-93.5-43.52-93.5-105.01Z"></path><path class="cls-1" d="m1017.39,171.84c8.42,23.58,13.76,33.13,25.55,34.25v1.68h-64.02v-1.68c15.72-1.12,20.78-10.39,14.88-27.52l-14.88-42.4h-66.26l-6.74,19.09c-11.51,33.13-11.79,49.14,8.42,50.82v1.68h-46.33v-1.68c13.48-1.4,20.78-18.53,32.57-52.51L954.78.56h2.25l60.37,171.27Zm-102.48-42.4h61.77l-30.89-88.44-30.89,88.44Z"></path></g></g></svg>