<?xml version="1.0" encoding="UTF-8"?><svg xmlns="http://www.w3.org/2000/svg" width="303" height="211" viewBox="0 0 303 211"><defs><style>.e{fill:#fff;}</style></defs><g id="a"/><g id="b"><g id="c"><path id="d" class="e" d="M0,151.769c.04-.31,.107-.62,.115-.931,.075-3.074,.182-6.148,.198-9.223,.02-3.809-.047-7.618-.057-11.427-.003-1.172,.273-1.419,1.456-1.48,.768-.04,1.535-.089,2.302-.143,.913-.065,1.074-.238,1.084-1.183,.009-.873,.002-1.746,.002-2.715,.463-.038,.875-.106,1.286-.098,1.694,.032,3.391,.175,5.082,.116,5.021-.175,10.045,.073,15.064-.163,.185-.009,.371-.007,.557-.005,.959,.007,1.1,.153,1.114,1.099,.011,.74,.008,1.483,.071,2.22,.052,.613,.389,.911,1.066,.878,.871-.042,1.749-.006,2.621,.05,.416,.027,.825,.176,1.364,.299,0,.974-.01,1.951,.002,2.927,.018,1.506,.022,3.014,.09,4.518,.032,.714-.167,1.023-.928,.979-1.031-.059-2.07,.004-3.101-.054-.691-.039-.963,.234-.992,.897-.036,.847-.152,1.691-.174,2.538-.017,.628-.243,.907-.901,.904-1.086-.006-2.187,.184-3.257,.067-3.699-.403-7.395,.073-11.092-.07-2.163-.083-4.331-.028-6.497-.013-.964,.007-1.158,.244-1.146,1.188,.034,2.73,.096,5.461,.072,8.191-.01,1.194-.201,2.387-.328,3.773-1.441,0-2.891,.013-4.341-.012-.245-.004-.488-.17-.731-.261,0-.955,0-1.91,0-2.865Zm16.83-14.809v.034c3.501,0,7.002-.013,10.502,.01,.747,.005,1.022-.398,1-1.016-.072-1.958-.2-3.914-.297-5.871-.037-.753-.459-1-1.155-.972-.768,.031-1.537,.038-2.305,.043-5.992,.039-11.983,.078-17.975,.102-.475,.002-.861,.047-.938,.597-.094,.679-.22,1.36-.227,2.042-.013,1.351,.082,2.704,.064,4.055-.01,.74,.302,.983,.991,.981,3.447-.011,6.894-.005,10.34-.005ZM186.662,48.182c-6.366,0-12.731-.005-19.097,.005-1.098,.002-1.363,.281-1.39,1.366-.062,2.464-.132,4.927-.165,7.391-.039,2.862-.08,5.725-.043,8.587,.017,1.321,.174,1.391,1.536,1.369,1.697-.028,3.396-.033,5.091-.109,3.097-.139,6.192-.445,9.289-.466,7.982-.055,15.956,.474,23.947,.196,3.868-.135,7.754-.154,11.646,.223,3.459,.335,6.955-.194,10.459-.083,6.783,.214,13.58,.003,20.371-.028,1.668-.008,2.243,.582,2.246,2.242,.005,3.448,.045,6.895,.022,10.343-.025,3.683-.088,7.366-.173,11.048-.031,1.353-.684,2.428-1.751,3.247-.9,.691-1.939,.922-3.057,.941-11.643,.204-23.286,.428-34.93,.614-1.07,.017-2.143-.188-3.215-.294-.235-.023-.469-.091-.704-.09-4.216,.006-8.433,.037-12.649,.026-2.625-.007-5.25-.099-7.875-.108-4.393-.015-8.759,.509-13.175,.341-7.312-.28-14.638-.21-21.958-.259-1.549-.01-1.92,.386-1.935,1.948-.04,4.003-.082,8.006-.056,12.009,.02,3.034,1.797,4.757,4.814,4.815,4.217,.082,8.433,.2,12.65,.244,2.357,.025,4.722,.03,7.071-.133,3.206-.222,6.397-.4,9.605-.024,1.523,.178,3.069,.246,4.604,.239,6.26-.026,12.52-.156,18.779-.139,5.86,.016,11.721,.272,17.58,.237,8.036-.048,16.072-.243,24.107-.435,3.079-.073,4.724-1.885,4.74-4.984,.01-1.91-.004-3.82,.036-5.728,.047-2.227,1.502-3.993,3.712-4.297,1.327-.183,2.708-.188,4.042-.051,2.552,.263,5.08,.098,7.613-.136,1.211-.112,1.654-.6,1.735-1.845,.065-1.002,.092-2.007,.126-3.011,.037-1.083,.092-2.167,.088-3.25-.014-3.435-.366-6.845-.164-10.309,.263-4.515-.019-9.065-.147-13.598-.058-2.061-.309-2.245-2.346-2.278-4.35-.072-8.7-.118-13.05-.165-1.445-.016-1.862-.182-1.886-1.603-.055-3.331,.069-6.666,.189-9.997,.026-.732,.797-1.342,1.449-1.358,4.104-.102,8.207-.196,12.311-.284,.822-.018,1.645,.023,2.467,.007,.963-.019,1.426-.494,1.393-1.435-.08-2.331-.179-4.661-.267-6.992-.112-2.967-.317-5.935-.307-8.902,.015-4.269,.195-8.537,.293-12.806,.066-2.86-1.918-4.818-4.764-4.757-3.285,.071-6.57,.125-9.855,.174-1.685,.025-2.563-.821-2.595-2.491-.068-3.553-.12-7.107-.193-10.66-.026-1.246-.638-1.887-1.876-2.025-.264-.029-.528-.052-.793-.07-3.309-.219-6.612-.173-9.93-.095-8.424,.197-16.853,.203-25.279,.205-5.012,.001-10.024-.199-15.036-.21-2.615-.006-5.233,.339-7.846,.289-6.07-.116-12.135-.426-18.205-.549-2.354-.048-4.717,.32-7.072,.276-3.711-.07-7.417-.368-11.128-.489-1.904-.062-3.813,.036-5.72,.086-.725,.019-1.016,.361-1.012,1.162,.028,5.25,0,10.5-.019,15.751-.006,1.549,.363,1.921,1.923,1.878,2.783-.077,5.577-.342,8.346-.184,5.328,.304,10.653,.406,15.985,.319,1.696-.028,3.4-.195,5.085-.078,4.51,.313,9.013,.073,13.52,.015,7.398-.095,14.798-.079,22.197-.122,2.223-.013,4.445-.058,6.667-.101,.715-.014,1.43-.112,2.143-.094,2.386,.059,4.771,.163,7.158,.232,5.329,.154,10.659,.288,15.988,.451,1.579,.048,2.115,.703,2.182,2.292,.088,2.087,.26,4.17,.395,6.256,.014,.21,.031,.421,.026,.631-.089,4.134-.186,8.268-.266,12.403-.007,.366,.062,.74,.14,1.101,.291,1.36,.447,2.719,.058,4.087-.251,.881-1.095,1.55-1.972,1.562-6.619,.096-13.237,.229-19.856,.275-7.79,.054-15.581,.037-23.371,.043-6.233,.005-12.466,.001-18.699,.001v.197ZM61.125,.42c5.544,0,11.088-.024,16.632,.014,1.668,.011,3.335,.288,5.002,.281,3.789-.014,7.577-.19,11.366-.188,5.753,.003,11.505,.104,17.258,.159,2.148,.02,4.297,.051,6.445,.034,2.102-.017,4.204-.134,6.305-.125,2.261,.01,2.43,.191,2.78,2.434,.417,2.669,.308,5.33-.067,7.999-.119,.849,.026,1.735,.047,2.604,.013,.551,.035,1.103,.023,1.653-.016,.727,.358,1.137,1.117,1.133,4.429-.022,8.857-.052,13.286-.08,2.629-.017,2.856,.203,2.87,2.823,.053,9.863,.104,19.725,.156,29.588,.008,1.61-.297,1.848-1.911,1.842-1.265-.004-2.529,.18-3.795,.216-1.345,.037-2.692-.008-4.038-.008-1.96,0-3.922-.021-5.881,.024-.935,.021-1.599,.758-1.678,1.694-.002,.026-.005,.053-.005,.079-.023,3.039-.111,6.08-.05,9.117,.064,3.16-1.7,5.068-4.858,5.048-3.21-.021-6.45,.224-9.621-.137-4.266-.486-8.532-.403-12.762-.186-3.679,.189-7.349,.117-11.021,.221-.331,.009-.665-.212-1.002-.309-.154-.044-.325-.085-.479-.062-1.069,.157-2.132,.45-3.202,.476-2.837,.07-5.676,.027-8.515,.03-.212,0-.435-.041-.635,.009-3.281,.817-6.595,.146-9.892,.202-3.897,.066-7.798-.039-11.697-.088-1.802-.023-3.604-.123-5.406-.127-2.702-.006-4.603,1.92-4.625,4.599-.031,3.683-.134,7.367-.102,11.05,.05,5.806,.435,11.621,.189,17.411-.138,3.254,.24,6.464,.119,9.696-.094,2.503-1.923,4.418-4.439,4.491-3.87,.112-7.741,.227-11.613,.288-1.001,.016-2.007-.153-3.007-.269-.638-.074-1.011-.472-1.037-1.113-.051-1.244-.096-2.49-.089-3.734,.01-1.693,.11-3.385,.1-5.078-.017-2.861-.104-5.722-.13-8.583-.008-.873,.137-1.747,.125-2.619-.033-2.565-.137-5.13-.161-7.695-.025-2.753-.009-5.506,.023-8.259,.047-4.028,.169-8.055,.179-12.082,.021-8.087,0-16.174-.037-24.26-.005-1.082-.278-2.163-.286-3.245-.013-1.768,.143-3.537,.131-5.305-.025-3.818-.102-7.637-.176-11.455-.055-2.816,1.709-4.741,4.543-4.831,2.386-.076,4.774-.086,7.161-.103,2.933-.021,4.834-1.898,4.826-4.836-.008-3.023-.053-6.046-.076-9.069-.009-1.187,.462-1.631,1.64-1.613,6.657,.098,13.313,.191,19.97,.286v-.042Zm-8.35,19.356l-.005-.103c-2.414,0-4.828-.008-7.242,.003-1.333,.006-1.596,.194-1.814,1.473-.155,.909-.234,1.838-.263,2.761-.077,2.458-.108,4.917-.163,7.376-.005,.211-.066,.42-.077,.631-.073,1.474-.233,2.951-.188,4.422,.076,2.459,.283,4.913,.436,7.37,.054,.87,.091,1.743,.18,2.61,.02,.195,.199,.51,.345,.535,1.188,.207,2.384,.469,3.582,.494,1.129,.024,2.262-.308,3.396-.328,2.439-.041,4.884-.054,7.32,.057,2.434,.111,4.857,.475,7.291,.57,3.259,.128,6.524,.103,9.786,.146,4.824,.064,9.649,.183,14.473,.176,2.887-.004,5.784-.088,8.657-.353,2.166-.2,4.305-.542,6.487-.241,.812,.112,1.639,.175,2.458,.171,3.554-.018,7.109-.07,10.663-.107,1.113-.011,2.236-.103,3.339,.003,1.825,.176,2.562-.463,2.488-2.303-.049-1.218-.071-2.439-.075-3.658-.011-3.472-.008-6.943-.008-10.415,0-.58-.015-1.161,.023-1.739,.068-1.051,.231-2.099,.244-3.15,.019-1.51-.071-3.022-.098-4.533-.031-1.781-.119-1.93-1.864-1.958-3.895-.063-7.792-.097-11.688-.098-1.986,0-3.983-.009-5.955,.187-1.58,.157-3.125,.423-4.737,.273-2.348-.218-4.711-.329-7.069-.374-6.895-.132-13.791-.214-20.687-.306-3.236-.044-6.473-.146-9.707-.078-3.178,.067-6.352,.316-9.528,.485Zm61.997,189.913c.001-9.894,.006-19.787-.016-29.681,0-.356-.186-.766-.408-1.058-3.936-5.202-7.898-10.384-11.831-15.588-.361-.478-.729-.645-1.319-.644-33.269,.014-66.539,.013-99.808,.013H.473c0,.378,0,.664,0,.95,0,11.008-.005,22.015,.019,33.023,.001,.459,.171,.996,.443,1.364,2.821,3.817,5.69,7.599,8.515,11.413,.389,.525,.785,.717,1.439,.717,34.304-.017,68.608-.015,102.912-.015h.942c.014-.233,.028-.363,.028-.492Zm140.505,.296c-.143-1.131-.317-2.254-.414-3.383-.052-.607-.218-.872-.899-.859-2.383,.043-4.768,.017-7.235,.017-.161,1.25-.328,2.451-.465,3.654-.043,.382-.094,.642-.586,.639-3.66-.02-7.32-.017-10.981-.024-.048,0-.096-.034-.241-.09l7.665-47.119h17.211c2.339,14.373,4.681,28.761,7.023,43.148l.177-.005v-.973c0-13.79,.008-27.579-.021-41.369-.002-.835,.243-1.004,1.025-.994,4.985,.067,9.971,.056,14.956,.131,2.713,.041,5.287,.7,7.692,2.006,2.037,1.106,3.035,2.78,3.033,5.093-.008,11.032-.003,22.063-.004,33.095,0,2.142-.916,3.75-2.776,4.841-2.687,1.575-5.628,2.177-8.687,2.194-8.672,.05-17.345,.042-26.018,.054-.129,0-.257-.031-.456-.056Zm21.564-10.753c1.212-.09,2.381-.082,3.512-.283,1.77-.316,2.508-1.298,2.523-3.108,.01-1.166,.005-2.332,.005-3.499,0-5.115,.002-10.231-.006-15.346-.002-1.514-.658-2.654-1.723-3.034-1.403-.502-2.849-.428-4.311-.362v25.633Zm-23.639-5.639c-.802-6.347-1.591-12.599-2.381-18.85l-.187,.006c-.79,6.265-1.58,12.529-2.377,18.844h4.945Zm-47.447,4.629h-15.083v-35.475h-12.825v10.224h-16.376v7.63h9.604v10.032h-9.629v7.639h16.448v11.896h27.862v-11.947Zm1.512-11.945c0-5.699,.03-11.399-.019-17.098-.013-1.56,.6-2.677,1.789-3.599,2.248-1.744,4.783-2.699,7.619-2.831,3.391-.157,6.795-.356,10.145,.344,1.514,.317,3.033,.786,4.428,1.443,1.897,.894,2.808,2.476,2.799,4.672-.043,11.001-.019,22.002-.022,33.004,0,.609-.052,1.219-.038,1.828,.038,1.68-.8,2.854-2.112,3.776-1.47,1.034-3.163,1.494-4.889,1.772-4.32,.695-8.655,.738-12.969-.045-1.942-.353-3.601-1.357-5.138-2.568-1.093-.861-1.617-1.938-1.608-3.363,.036-5.779,.015-11.557,.015-17.336Zm16.525,.075c0-1.696,.017-3.392-.005-5.088-.022-1.773-.032-3.549-.139-5.319-.077-1.282-.709-1.903-1.964-2.131-1.102-.201-2.164-.044-3.168,.457-.7,.349-1.041,.875-1.038,1.708,.023,6.917,.024,13.834-.001,20.75-.003,.876,.356,1.511,1.115,1.719,.973,.267,2.01,.436,3.016,.417,1.205-.023,1.874-.759,2.034-1.947,.088-.655,.14-1.319,.143-1.979,.015-2.862,.006-5.724,.007-8.585Zm-149.633-50.815c-.239,2.613-.01,5.269,.013,7.906,.025,2.838,.057,5.675,.061,8.513,0,.684-.122,1.368-.14,2.053-.014,.554,.222,.852,.865,.833,1.139-.034,2.28,.03,3.421,.039,.881,.006,1.306-.379,1.366-1.269,.043-.634,.056-1.273,.036-1.909-.062-2.033-.2-4.065-.206-6.098-.005-1.899,.162-3.799,.181-5.699,.032-3.179,0-6.359,.009-9.538,.003-1.006,.068-1.068,1.1-1.099,1.087-.032,2.175-.004,3.261-.035,2.138-.061,4.275-.166,6.414-.21,.873-.018,1.748,.105,2.622,.115,2.467,.028,4.934,.027,7.401,.044,.726,.005,1.42,.489,1.458,1.076,.094,1.454,.368,2.945,.157,4.359-.341,2.289-.029,2.36-2.429,2.358-3.104-.002-6.208-.019-9.311-.008-.731,.003-1.462,.09-2.156,.136-.047,.147-.076,.197-.076,.246,.006,.742,.012,1.485,.026,2.227,.02,1.044-.088,1.225-1.153,1.41-.75,.13-1.519,.193-2.281,.2-1.058,.009-1.29,.152-1.306,1.163-.037,2.307-.043,4.614-.061,6.921-.003,.389,0,.777,0,1.186,1.266,.108,2.425,.227,3.586,.298,.712,.044,1.04,.338,1.052,1.083,.017,1.077,.123,2.152,.183,3.106,2.514,.712,4.973,.474,7.43,.324,.817-.05,1.637-.093,2.455-.086,2.624,.023,5.248,.075,7.872,.101,.258,.002,.541-.055,.767-.173,.18-.094,.41-.319,.413-.49,.032-1.476,.019-2.952,.019-4.513-.346,0-.659-.005-.972,0-4.847,.093-9.694,.198-14.541,.27-.817,.012-1.635-.142-2.454-.169-.702-.024-.912-.38-.88-1.024,.103-2.14,.205-4.281,.269-6.422,.022-.743,.308-1.016,1.062-1.006,2.118,.027,4.238-.011,6.357-.024,1.084-.007,2.167-.02,3.251-.025,1.073-.004,2.146,0,3.239,0-.049-1.081-.139-2.06-.124-3.038,.014-.907,.448-1.247,1.355-1.237,.796,.009,1.596-.052,2.386,.016,1.339,.115,1.512-.415,1.553-1.582,.066-1.898,.102-3.796,.147-5.695,.01-.419,.001-.838,.001-1.373-1.502-.067-2.926-.154-4.351-.186-1.042-.023-1.445-.397-1.36-1.439,.049-.606,.191-1.206,.237-1.812,.037-.492-.096-.872-.737-.867-4.35,.038-8.7,.049-13.05,.088-1.217,.011-2.434,.121-3.651,.121-1.667,0-3.335-.09-5.002-.084-.851,.003-1.156,.362-1.167,1.159-.007,.477,0,.955-.002,1.432-.004,.902-.19,1.107-1.099,1.186-1.183,.103-2.367,.198-3.579,.299-.134,2.362,.269,4.575,.062,6.838Zm185.939,18.392c-.017,.595,.226,.822,.772,.837,2.039,.057,4.079,.184,6.117,.161,5.408-.061,10.815-.195,16.222-.281,1.556-.025,3.114,0,4.67,.025,.551,.009,.746-.206,.722-.758-.035-.793,.052-1.593-.006-2.384-.057-.781,.292-.941,.98-.905,.952,.049,1.907,.016,2.861,.022,.543,.004,.799-.199,.794-.803-.023-2.595-.013-5.19,.008-7.785,.005-.63-.279-.738-.841-.703-1.084,.069-2.173,.05-3.259,.096-.479,.02-.693-.184-.691-.64,.003-.663,.016-1.325,.025-1.988,.007-.582,.261-.864,.884-.838,1.083,.044,2.17,.011,3.253,.064,.585,.029,.788-.133,.775-.752-.053-2.596-.064-5.192-.066-7.788,0-.624-.253-.84-.864-.82-.979,.033-1.962-.025-2.941,.011-.694,.025-.953-.26-.941-.936,.014-.794,0-1.594-.081-2.383-.025-.241-.289-.631-.477-.652-.916-.1-1.843-.132-2.766-.127-2.62,.014-5.24,.072-7.86,.083-1.35,.006-2.7-.059-4.05-.076-1.136-.014-2.273-.016-3.409-.003-1.402,.016-2.804,.052-4.206,.079-.344,.007-.688,.026-1.031,.017-1.242-.032-2.486-.055-3.727-.118-.596-.03-.811,.245-.815,.79-.008,1.167,.004,2.334-.047,3.499-.026,.587,.166,.798,.758,.793,2.456-.022,4.913-.005,7.369-.012,2.809-.009,5.619-.038,8.428-.04,1.347,0,2.693,.062,4.04,.061,2.038-.002,4.076-.016,6.113-.062,.72-.016,.974,.245,.978,.974,.01,1.876,.099,3.751,.148,5.627,.017,.64-.249,.965-.955,.944-1.402-.043-2.807-.031-4.21-.027-3.868,.009-7.735,.019-11.603,.042-1.907,.011-3.814,.042-5.72,.096-.206,.006-.578,.224-.582,.352-.041,1.521-.026,3.043-.026,4.726,1.365,0,2.687,.025,4.008-.006,2.25-.053,4.498-.193,6.747-.201,3.762-.015,7.524,.045,11.286,.074,.159,.001,.371-.057,.466,.022,.22,.184,.54,.433,.543,.66,.031,1.879,.022,3.759-.023,5.638-.027,1.124-.066,1.124-1.194,1.126-7.368,.013-14.736,.027-22.104,.039-1.429,.002-2.858,0-4.462,0,0,1.435,.027,2.832-.013,4.228ZM63.097,124.642c-1.349,.017-2.697,.164-4.045,.154-1.187-.009-2.372-.221-3.559-.228-2.572-.014-5.145,.054-7.717,.074-1.777,.014-3.555,.038-5.331-.015-.718-.021-.914,.22-.896,.901,.02,.765-.004,1.55-.166,2.292-.075,.345-.482,.801-.809,.87-.765,.161-1.572,.143-2.363,.153-.949,.013-1.143,.161-1.127,1.086,.028,1.562,.136,3.124,.114,4.685-.067,4.871-.183,9.742-.268,14.613-.015,.88,.366,1.246,1.232,1.255,.875,.009,1.753-.032,2.625,.024,1.067,.068,1.276,.335,1.227,1.403-.046,1.001-.117,2-.183,3.095,.5,.027,.916,.078,1.329,.067,.715-.02,1.43-.121,2.144-.112,5.588,.072,11.175-.461,16.766-.018,1.478,.117,2.966,.125,4.449,.143,.819,.01,1.639-.062,2.458-.095,.698-.028,1.005-.532,1.038-1.087,.072-1.209,.022-2.425,.022-3.68-.198-.016-.377-.044-.557-.043-3.846,.013-7.692,.003-11.538,.055-2.675,.036-5.349,.221-8.023,.22-2.17,0-4.34-.174-6.509-.284-.493-.025-.757-.284-.755-.819,.009-2.194,.026-4.389-.022-6.583-.014-.665,.314-.832,.836-.864,1.824-.111,3.649-.278,5.474-.292,3.553-.027,7.107,.038,10.661,.058,1.715,.009,3.431,.002,5.226,.002,0-1.194,.002-2.221,0-3.248-.003-1.041-.192-1.267-1.25-1.26-2.094,.015-4.189,.125-6.282,.1-2.457-.029-4.912-.188-7.369-.235-2.201-.042-4.403-.007-6.605-.011-.397,0-.84,.05-.816-.572,.08-2.093,.144-4.186,.238-6.278,.025-.547,.322-.868,.924-.862,.609,.007,1.219-.042,1.829-.047,4.42-.034,8.84-.059,13.259-.099,.608-.005,1.217-.113,1.825-.11,2.864,.014,5.727,.037,8.591,.086,.698,.012,.984-.352,1.001-.951,.034-1.136,.01-2.274,.01-3.554-2.488,0-4.788-.02-7.088,.008Zm56.689,17.028c2.11-.021,4.221-.077,6.331-.081,3.682-.006,7.365,.044,11.047,.012,1.195-.01,1.637,.264,1.629,1.46-.013,1.956-.061,3.912-.147,5.866-.012,.277-.273,.711-.507,.781-.82,.248-1.675,.492-2.524,.517-4.425,.128-8.852,.245-13.279,.252-2.833,.004-5.666-.195-8.5-.287-.608-.02-1.225-.012-1.825,.07-.219,.03-.572,.308-.577,.481-.045,1.581-.026,3.163-.026,4.827,.362,0,.648,.003,.934,0,3.367-.035,6.735-.089,10.102-.103,5.343-.022,10.687-.012,16.03-.032,.959-.004,1.276-.328,1.305-1.296,.027-.927,.016-1.857-.026-2.783-.032-.704,.215-1.004,.955-1.002,1.202,.004,2.404-.081,3.633-.13v-8.345c-.996,0-1.943-.01-2.889,.003-1.19,.016-1.334-.105-1.421-1.258-.06-.793-.102-1.588-.193-2.378-.104-.905-.375-1.128-1.289-1.128-3.759,0-7.519,.002-11.278,.004-.027,0-.053,.003-.08,.002-2.991-.046-5.983-.117-8.974-.122-.879-.001-1.347-.453-1.406-1.19-.151-1.9-.199-3.808-.258-5.714-.013-.432,.193-.752,.717-.765,3.841-.095,7.681-.253,11.522-.285,3.005-.025,6.011,.119,9.016,.155,1.721,.021,3.442-.027,5.163-.038,.534-.004,.86-.26,.894-.788,.074-1.132,.14-2.266,.14-3.399,0-.157-.388-.446-.6-.45-2.805-.052-5.611-.079-8.417-.077-1.296,.001-2.592,.088-3.889,.122-2.01,.053-4.022,.146-6.032,.13-2.782-.022-5.564-.131-8.346-.198-.256-.006-.512,.027-.659,.035,0,1.048-.007,2.014,.002,2.98,.007,.783-.253,1.124-1.04,1.153-.711,.025-1.425-.053-2.137-.073-.464-.013-.929-.002-1.464-.002v8.593h4.331l.53,4.482c1.129,0,2.315,.01,3.5-.002Zm79.685-17.123c-2.614,.011-5.227,.026-7.84,.041-.106,0-.212,.008-.318,.014-.899,.048-1.084,.244-1.103,1.166-.016,.768-.015,1.537-.051,2.304-.024,.508-.318,.736-.838,.736-.922,0-1.845,.052-2.767,.05-.59,0-.785,.262-.763,.834,.054,1.404,.06,2.81,.098,4.214,.058,2.147,.198,4.295,.176,6.441-.031,2.967-.205,5.931-.267,8.898-.032,1.536,.04,3.075,.079,4.613,.014,.562,.241,1.008,.875,1.025,1.193,.032,2.387,.033,3.581,.03,.502-.002,.698-.248,.611-.774-.082-.492-.103-.999-.097-1.499,.033-2.89,.095-5.78,.121-8.67,.024-2.595,.018-5.191,.013-7.787,0-.312-.089-.623-.12-.936-.052-.521-.152-1.047-.123-1.564,.064-1.137,.231-2.269,.288-3.406,.031-.626,.294-.946,.894-.961,2.171-.054,4.343-.103,6.515-.109,.19,0,.52,.31,.548,.509,.137,.969,.262,1.949,.265,2.926,.017,5.475-.017,10.95,0,16.425,.004,1.376,.523,1.701,1.937,1.691,.827-.006,1.679,.177,2.472,.427,.281,.089,.561,.614,.595,.964,.077,.787,.014,1.589-.019,2.384-.026,.617,.316,.916,.859,.904,2.596-.059,5.191-.146,7.785-.248,.608-.024,.856-.436,.87-1.024,.018-.742,.048-1.484,.097-2.225,.087-1.309,.096-1.33,1.377-1.298,.766,.019,1.529,.159,2.294,.169,.384,.005,.899,.036,.911-.605,.041-2.305,.144-4.61,.114-6.914-.042-3.285-.226-6.568-.264-9.853-.028-2.411,.086-4.824,.122-7.236,.005-.339,.003-.717-.137-1.008-.119-.248-.431-.546-.678-.565-1.003-.077-2.014-.063-3.022-.066-.945-.003-1.354,.398-1.35,1.345,.006,1.671,.021,3.342,.054,5.012,.024,1.213,.114,2.424,.117,3.637,.002,1.004-.114,2.008-.118,3.013-.009,2.753,.024,5.506,.017,8.259-.003,1.007-.043,2.017-.13,3.019-.029,.338-.167,.809-.412,.956-.535,.319-1.161,.62-1.767,.66-1.903,.124-3.813,.142-5.721,.16-.68,.007-1.025-.32-1.006-1.099,.081-3.255,.112-6.511,.14-9.768,.005-.599-.135-1.2-.129-1.8,.027-2.808,.085-5.615,.125-8.423,.007-.529-.256-.719-.801-.697-.846,.033-1.695-.02-2.543-.045-.545-.016-.796-.264-.775-.852,.038-1.085,.011-2.172,.011-3.355-.33-.017-.563-.04-.796-.039Zm-50.985,4.267c.635-.07,1.18-.149,1.728-.185,.422-.028,.852,.037,1.271-.008,1.844-.199,1.703-.454,1.684-1.805-.034-2.373-.456-2.159,2.121-2.183,4.451-.042,8.903,.007,13.355-.011,2.411-.01,4.822-.078,7.234-.119,.289-.005,.578,0,1.004,0,.043,.923,.087,1.807,.125,2.692,.044,1.013,.31,1.333,1.31,1.42,.844,.074,1.694,.095,2.542,.11,.56,.01,.805,.225,.788,.817-.04,1.344-.077,2.691-.028,4.033,.055,1.503,.395,3.017,.28,4.501-.296,3.839-.116,7.671-.068,11.506,.008,.659-.329,.926-.908,.931-.715,.007-1.431-.04-2.146-.078-1.078-.057-1.658,.582-1.632,1.655,.021,.871-.059,1.75-.183,2.613-.032,.221-.384,.546-.611,.565-1.078,.091-2.174,.202-3.245,.106-3.435-.307-6.859-.522-10.318-.345-1.658,.085-3.301,.029-4.964,.317-1.279,.222-2.64-.011-3.963-.058-.509-.018-.743-.277-.729-.821,.022-.872-.005-1.747-.04-2.62-.036-.894-.364-1.197-1.278-1.2-.716-.003-1.432,.035-2.148,.029-.859-.007-1.159-.296-1.138-1.139,.05-1.983,.178-3.966,.173-5.948-.005-1.905-.181-3.809-.205-5.714-.037-2.967-.01-5.935-.01-9.059Zm27.77,5.908h-.232c0-1.456-.002-2.914,0-4.371,.001-.656-.307-1.109-.962-1.141-1.892-.092-3.786-.153-5.68-.174-.95-.01-1.902,.138-2.852,.139-3.367,.003-6.734-.03-10.101-.04-.476-.001-.956,.022-1.427,.089-1.048,.148-1.216,.328-1.23,1.373-.059,4.182-.139,8.363-.139,12.545,0,1.877,.109,3.759,.288,5.628,.114,1.192,.428,1.393,1.598,1.405,1.909,.019,3.818-.012,5.726,.011,.86,.01,1.719,.14,2.578,.142,.844,.003,1.69-.154,2.531-.122,2.665,.101,5.327,.183,7.989-.072,1.088-.104,1.594-.543,1.627-1.626,.041-1.337,.037-2.675,.038-4.013,0-1.175,.039-2.33,.179-3.513,.245-2.06,.068-4.171,.068-6.26Zm51.37,19.599c.039-1.32,.088-2.64,.083-3.959-.01-2.89-.04-5.78-.083-8.67-.014-.941-.115-1.88-.137-2.821-.019-.816,.029-1.633,.029-2.45,.001-2.011-.002-4.023-.016-6.034-.004-.629,.322-1.01,.884-1.161,.399-.107,.828-.133,1.245-.139,4.368-.064,8.734,.254,13.108-.068,2.153-.159,4.336,.054,6.503,.149,.706,.031,1.356,.924,1.353,1.717-.006,1.511-.021,3.023-.046,4.534-.015,.927-.611,1.529-1.576,1.541-3.553,.041-7.106,.054-10.659,.09-1.908,.019-3.816,.071-5.725,.094-.494,.006-.717,.186-.709,.711,.011,.741-.076,1.484-.055,2.224,.009,.316,.138,.654,.295,.935,.366,.652,1.055,.547,1.636,.552,2.334,.022,4.668-.04,7.001-.009,2.805,.036,5.61,.121,8.413,.217,.53,.018,1.053,.139,1.068,.893,.076,3.812,.188,7.623,.255,11.436,.011,.624,.24,.866,.842,.855,.928-.016,1.865-.081,2.782,.02,.809,.089,1.182-.339,1.452-.932,.147-.323,.196-.716,.193-1.076-.017-2.18-.093-4.36-.089-6.54,.006-3.366,.08-6.731,.088-10.096,.004-1.908-.067-3.816-.103-5.724-.006-.344,.008-.69-.006-1.034-.021-.557-.24-.896-.879-.846-.79,.062-1.586,.046-2.374,.122-1.308,.127-2.041-.519-2.022-1.837,.008-.583,.068-1.173,0-1.747-.026-.216-.336-.549-.539-.566-1.206-.101-2.418-.161-3.629-.17-6.149-.045-12.298-.065-18.447-.114-.504-.004-.658,.166-.634,.641,.035,.715,.041,1.431,.039,2.147-.003,1.123-.771,1.828-1.882,1.748-.45-.032-.899-.076-1.349-.094-.983-.039-1.215,.128-1.444,1.071-.068,.279-.077,.576-.078,.865-.044,7.423-.086,14.846-.121,22.27-.002,.37-.021,.768,.107,1.1,.097,.252,.41,.586,.637,.594,1.453,.054,2.909,.027,4.46,.027,.031-.109,.121-.285,.126-.463Zm-85.51,9.584c1.548,1.449,2.528,3.226,2.563,5.377,.081,4.957,.179,9.916,.103,14.871-.042,2.743-1.254,4.902-4.035,5.875-.138,.048-.264,.135-.477,.247,2.748,3.424,5.445,6.785,8.266,10.299v-37.788h-8.054c.562,.378,1.164,.679,1.634,1.119Zm-14.725,31.916v14.319h10.751c-3.602-4.797-7.122-9.485-10.751-14.319Zm2.705-13.011c1.388-.157,2.09-.692,2.167-2.083,.125-2.262,.058-4.536,.004-6.804-.017-.697-.555-1.191-1.211-1.313-1.197-.223-2.416-.322-3.668-.478v10.869c.934-.063,1.825-.091,2.709-.191Zm168.861,25.664c.238,.359,.371,.724,.463,1.1,.096,.395,.228,.636,.727,.624,.47-.012,.655-.177,.741-.611,.073-.37,.224-.725,.341-1.086l.152,.025v1.608h1.016v-4.229h-1.502l-.751,2.367c-.236-.801-.341-1.445-.614-2.007-.377-.779-1.08-.244-1.627-.355v4.245h1.054v-1.679Zm-1.623-2.551h-3.41v1.17l1.193,.076v2.976h1.088v-2.99l1.129-.061v-1.171Z"/></g></g></svg>